<mxfile host="65bd71144e">
    <diagram id="NQbdevP67i4PQxkOO86s" name="Page-1">
        <mxGraphModel dx="594" dy="561" grid="1" gridSize="10" guides="1" tooltips="1" connect="1" arrows="1" fold="1" page="1" pageScale="1" pageWidth="827" pageHeight="1169" math="0" shadow="0">
            <root>
                <mxCell id="0"/>
                <mxCell id="1" parent="0"/>
                <mxCell id="15" style="edgeStyle=none;shape=connector;rounded=1;html=1;exitX=0;exitY=0.5;exitDx=0;exitDy=0;labelBackgroundColor=default;fontFamily=Helvetica;fontSize=18;fontColor=default;endArrow=none;endFill=0;strokeColor=default;" parent="1" source="2" edge="1">
                    <mxGeometry relative="1" as="geometry">
                        <mxPoint x="50" y="240" as="targetPoint"/>
                    </mxGeometry>
                </mxCell>
                <mxCell id="2" value="" style="pointerEvents=1;verticalLabelPosition=bottom;shadow=0;dashed=0;align=center;html=1;verticalAlign=top;shape=mxgraph.electrical.miscellaneous.batteryStack;" parent="1" vertex="1">
                    <mxGeometry x="50" y="160" width="100" height="60" as="geometry"/>
                </mxCell>
                <mxCell id="9" style="edgeStyle=none;shape=connector;rounded=1;html=1;exitX=1;exitY=0.5;exitDx=0;exitDy=0;exitPerimeter=0;entryX=0;entryY=0.57;entryDx=0;entryDy=0;entryPerimeter=0;labelBackgroundColor=default;fontFamily=Helvetica;fontSize=11;fontColor=default;endArrow=none;endFill=0;strokeColor=default;" parent="1" source="3" target="7" edge="1">
                    <mxGeometry relative="1" as="geometry"/>
                </mxCell>
                <mxCell id="3" value="" style="pointerEvents=1;verticalLabelPosition=bottom;shadow=0;dashed=0;align=center;html=1;verticalAlign=top;shape=mxgraph.electrical.resistors.resistor_2;" parent="1" vertex="1">
                    <mxGeometry x="440" y="180" width="100" height="20" as="geometry"/>
                </mxCell>
                <mxCell id="16" style="edgeStyle=none;shape=connector;rounded=1;html=1;exitX=1;exitY=0.57;exitDx=0;exitDy=0;exitPerimeter=0;labelBackgroundColor=default;fontFamily=Helvetica;fontSize=18;fontColor=default;endArrow=none;endFill=0;strokeColor=default;" parent="1" source="7" edge="1">
                    <mxGeometry relative="1" as="geometry">
                        <mxPoint x="640" y="240" as="targetPoint"/>
                    </mxGeometry>
                </mxCell>
                <mxCell id="7" value="" style="verticalLabelPosition=bottom;shadow=0;dashed=0;align=center;html=1;verticalAlign=top;shape=mxgraph.electrical.opto_electronics.led_2;pointerEvents=1;" parent="1" vertex="1">
                    <mxGeometry x="540" y="150" width="100" height="70" as="geometry"/>
                </mxCell>
                <mxCell id="10" value="&lt;font style=&quot;font-size: 18px&quot;&gt;-&lt;/font&gt;" style="text;html=1;resizable=0;autosize=1;align=center;verticalAlign=middle;points=[];fillColor=none;strokeColor=none;rounded=0;fontFamily=Helvetica;fontSize=11;fontColor=default;" parent="1" vertex="1">
                    <mxGeometry x="30" y="160" width="20" height="20" as="geometry"/>
                </mxCell>
                <mxCell id="11" value="&lt;font style=&quot;font-size: 18px&quot;&gt;+&lt;/font&gt;" style="text;html=1;resizable=0;autosize=1;align=center;verticalAlign=middle;points=[];fillColor=none;strokeColor=none;rounded=0;fontFamily=Helvetica;fontSize=11;fontColor=default;" parent="1" vertex="1">
                    <mxGeometry x="230" y="160" width="30" height="20" as="geometry"/>
                </mxCell>
                <mxCell id="12" value="&lt;font style=&quot;font-size: 18px&quot;&gt;5 V&lt;br&gt;&lt;/font&gt;" style="text;html=1;resizable=0;autosize=1;align=center;verticalAlign=middle;points=[];fillColor=none;strokeColor=none;rounded=0;fontFamily=Helvetica;fontSize=11;fontColor=default;" parent="1" vertex="1">
                    <mxGeometry x="70" y="130" width="40" height="20" as="geometry"/>
                </mxCell>
                <mxCell id="13" value="&lt;font style=&quot;font-size: 18px&quot;&gt;220&amp;nbsp;&lt;/font&gt;&lt;span style=&quot;color: rgb(32 , 33 , 36) ; font-family: &amp;#34;arial&amp;#34; , sans-serif ; font-size: 16px ; text-align: left ; background-color: rgb(255 , 255 , 255)&quot;&gt;Î©&lt;/span&gt;" style="text;html=1;resizable=0;autosize=1;align=center;verticalAlign=middle;points=[];fillColor=none;strokeColor=none;rounded=0;fontFamily=Helvetica;fontSize=11;fontColor=default;" parent="1" vertex="1">
                    <mxGeometry x="460" y="160" width="60" height="20" as="geometry"/>
                </mxCell>
                <mxCell id="14" value="&lt;font style=&quot;font-size: 18px&quot;&gt;Input A&lt;/font&gt;" style="text;html=1;resizable=0;autosize=1;align=center;verticalAlign=middle;points=[];fillColor=none;strokeColor=none;rounded=0;fontFamily=Helvetica;fontSize=11;fontColor=default;" parent="1" vertex="1">
                    <mxGeometry x="320" y="130" width="70" height="20" as="geometry"/>
                </mxCell>
                <mxCell id="21" value="" style="endArrow=none;html=1;rounded=1;labelBackgroundColor=default;fontFamily=Helvetica;fontSize=18;fontColor=default;strokeColor=default;" parent="1" edge="1">
                    <mxGeometry width="50" height="50" relative="1" as="geometry">
                        <mxPoint x="50" y="240" as="sourcePoint"/>
                        <mxPoint x="640" y="240" as="targetPoint"/>
                    </mxGeometry>
                </mxCell>
                <mxCell id="24" style="edgeStyle=none;html=1;exitX=1;exitY=0.885;exitDx=0;exitDy=0;exitPerimeter=0;entryX=1;entryY=0.5;entryDx=0;entryDy=0;endArrow=none;endFill=0;" parent="1" source="23" target="2" edge="1">
                    <mxGeometry relative="1" as="geometry"/>
                </mxCell>
                <mxCell id="26" style="edgeStyle=none;html=1;exitX=1;exitY=0.115;exitDx=0;exitDy=0;exitPerimeter=0;endArrow=none;endFill=0;" parent="1" source="23" edge="1">
                    <mxGeometry relative="1" as="geometry">
                        <mxPoint x="50" y="240" as="targetPoint"/>
                    </mxGeometry>
                </mxCell>
                <mxCell id="34" style="edgeStyle=none;html=1;exitX=0;exitY=0.885;exitDx=0;exitDy=0;exitPerimeter=0;entryX=0;entryY=0.5;entryDx=0;entryDy=0;entryPerimeter=0;endArrow=none;endFill=0;" edge="1" parent="1" source="23" target="33">
                    <mxGeometry relative="1" as="geometry"/>
                </mxCell>
                <mxCell id="23" value="" style="pointerEvents=1;verticalLabelPosition=bottom;shadow=0;dashed=0;align=center;html=1;verticalAlign=top;shape=mxgraph.electrical.electro-mechanical.2-way_switch;rotation=-180;" parent="1" vertex="1">
                    <mxGeometry x="180" y="190" width="75" height="26" as="geometry"/>
                </mxCell>
                <mxCell id="29" value="" style="shape=image;verticalLabelPosition=bottom;labelBackgroundColor=#ffffff;verticalAlign=top;aspect=fixed;imageAspect=0;image=data:image/png,iVBORw0KGgoAAAANSUhEUgAAAfUAAAFCCAIAAABn5dOLAAAgAElEQVR4nOyd2XMbV3r2u4HG3tj3jQBIgqtESZZoSY7HE2eciWtqUpWr/IPJZaYyNZkk42QyX3k8tmVRsiSKO0gQCwFiRwNoAA000P1dPFEXQkq0xF3Q+V1JxNIHvTznPe92aFmWKQKBQCCMHaqrHgCBQCAQLgSi7wQCgTCeEH0nEAiE8YToO4FAIIwnRN8JBAJhPCH6TiAQCOMJ0XcCgUAYT4i+EwgEwnhC9J1AIBDGE6LvBAKBMJ4QfScQCITxhOg7gUAgjCdE3wkEAmE8IfpOIBAI4wnRdwKBQBhPiL4TCATCeEL0nUAgEMYTou8EAoEwnhB9JxAIhPGE6DuBQCCMJ0TfCQQCYTwh+k4gEAjjCdF3AoFAGE+IvhMIBMJ4QvSdQCAQxhOi7wQCgTCeEH0nEAiE8YToO4FAIIwnRN8JBAJhPCH6TiAQCOMJ0XcCgUAYT4i+EwgEwnhC9J1AIBDGE6LvBAKBMJ4QfScQCITxhOg7gUAgjCdE3wkEAmE8IfpOIBAI4wnRdwKBQBhPiL4TCATCeEL0nUAgEMYTou8EAoEwnjBXPYD/w3A4bDabrVZrMBhc9VgIBALhomBZ1mKx6PX6Cz3K9dJ3QRCePn366NGjVqt11WMhEAiEi+L27dsPHjyIxWIXepTrpe/dbvfp06f/9E//VCgUrnosBAKBcFH84z/+YzQa/bD0XZblXq/H87zFYonH44FA4KpHRCAQCOcGz/OJRCKRSHS73UvwQl8vfVeIRCK/+tWv7t+/f9UDIRAIhHMjn8//7ne/S6VSl3O4a6rvTqdzcXHxZz/72QnvGQ6Hoij2+32e51utliiKP/m1Wq3W4XA4HA6V6goSh7A06fV6er3eYDAwDKNWq980kkajUa/XJUmyWCwWi0WlUqnVapqmz2swsizLstzpdOr1eqPReJuPsCxrNpuNRiPDMBqN5hQHbbVa9Xq93+/jR+EMnPyjRFHs9Xq9Xq/b7XY6neFwKMuyWq02mUwsy+p0Oq1Wq1arTzEYAuHySSaTP/7446XdsddU39+Gfr9fq9Wq1erGxsbGxka9Xv/Jjzidzk8//fRnP/uZTqe7hBEeoV6vb29v5/P5cDgcDoetVqvBYHjTSHZ3dx89etTr9W7durW0tGQwGPR6PcOc2/WSJGk4HGaz2e+///7Zs2dv85HZ2dmbN2/GYjGr1Wq1Wk9x0FQq9ejRo2q1evv27Vu3brEsq9frT54qOp1OoVA4PDxMp9PpdLrdbg8GA71ePzc3Nzc35/F4nE4ny7KnGAyBMPa83/perVZTqdSf//znP/zhD5lM5ic/EovFWJa9f//+leh7rVZ7+fLl2traRx99pNPp1Go1wzAn6Pvvf/97nucpiopGoxRFabXacxyMJEmDwSCbzf7Xf/3Xv/zLv7zNR7744guapk0mE8MwFovlFIuJVCr11Vdf7e/vDwaDcDisUqk0Gs3J+t5utw8ODtbX11dWVlZWVmq1Wq/Xs1gsX3zxBWx/GPLvOhIC4UPgPdZ3OFskSfrkk08sFkutVqMoCpqVzWZlWYY/wW632+12WL4ul+vmzZun8y2cncFgwPN8rVbrdDqSJJ38ZkmSYGJLkiTL8rkPRqVSMQwTDAY///xzi8WCP7ZarWq1ynGcIAjdbtflcgUCAafTiVfn5+fn5+ddLpfRaDy1pwi/C96ht3m/0WhEmN1oNEYikWQyube31+v1jEYjRVEXcWYIhLHh/dZ3rM0dDsetW7f6/T5FUYIgfPfdd99++60kSX6/PxgMTk5OTk5OwkzW6XRut/vt9R3ycV5eb1EUeZ7nOK7b7f6kvl80KpWKpulwOPy3f/u39+7dwx/z+fzOzs7+/n69Xq/X63Nzcx9//HE8HserFovFarWaTKbzXUmcjMlkCgaDTqdzcnKy0+n8+OOPX3/9dSaTYVn2SoIoBMJ7xHus72q12mAwGAwGm82m/BHu2q2tLeh7NBqdm5tbXFw0GAxHPi7LcrfbrVQq5XLZZrM5HA6aplutVrPZHA6Hw+FQpVLpdDq9Xo9gIE3Tw+Gw1+txHMdxnNlsdjqdZrMZ3zYcDgeDQbfbxatOp9PlcuGgkiTV6/VarZZIJHK5XKVSyWQy29vbjUbDYrFALrVardlsNpvNR8Y5HA673W6j0Wi1WoeHh/g2iqJMJpPxFafzNdE0TdM0fpryR4fDMRwO+/2+VqtVqVShUGhhYWFpaem13wAbH2HPTqeDU4plgVarxTdrNBocaPSDkiThRPX7/UKhQNM0zHmj0YjfhWAD3gwHjjLIZrO5ublZrVa1Wu2b5l35Fa1Wi+f5brcriiJy0Wia1mq1uG1wIDJJEMaY91jfzwKe/1qt9t13333zzTe3b9++e/cuwzBbW1vb29sQLIPB4HK5fD4fQnkMw7Tb7Uqlsrq6urq6Oj09/cknnyj63u/3O51OLpd78eLFixcvHjx48Mknnyj6vrOz8/Tp0xcvXmxtbRWLxefPn9dqNYvFotPpjEajw+FwOp3T09Nzc3NH9F0UxVqtlslkyuVyuVxut9uiKMqyHIlEIpFIOBwOBoMej+cKziBFcRx3eHh4cHCQyWQODg5wSrVarclkstlsCwsL8/PzVqtVrVYfyRZQfhTP85VKpdVqYUKNRCLRaDQUCgUCAZ/Pd+qBybKM6TaTySQSicPDw2azyfM8ZhqHwxEMBgOBQDAYDAaDVxKJIRAuhw9U3ymKkmW5Xq//8MMP//zP/8xxnN1u1+l0Kysr3377baPRgHEdjUZnZmaMRmMsFpNlmef5QqGwsrLy7//+759++unk5KTiu0CaZjab/e67737/+99rNJr5+Xk4jofDYSqV+vrrr9fX18vlMsdxPM/v7+8zDEPTtMFgmJiYCIVCkiQFAgG/3z86yH6/X6/XYe9vbW2VSiVBECRJunXr1q1btwaDgdlsvhJ9x9lLJpNra2tra2sbGxvwqhsMBqvV6vP5VCpVIBBAgtBxfcePwu8qFArIc71169bt27f7/b7RaPR6vad2i8myLIqiIAjpdHplZSWRSJTL5VqtplKpVCpVMBicnZ2dn59nGMbj8ZywDiAQ3nc+XH2naVqtVsOCrlarP/74I7z5StI9PPsej2dyclKv15/aY65Wq+Px+JdffunxeFZWVvb29mZmZmZmZmw2m16vNxqNiADHYrFRRxNASLZarXq93mAw2O/32+12u90WBGFnZ4dhmEAgEIvFaJq+ND8Dor6wjn/88cfDw0O/3z89PY10IJ7nS6USHF87Ozv9ft/n8zkcjiPf0Ol0arUalkf4b7fbFQRhf39fkiS73R6JRBiGwRT4riPsdDoHBwfZbBb5lE6nc2pqymw2y7IM11C73V5bWzMajW63G+Hiy4woEAiXxgeq71iqQ99NJlOlUvnxxx8nJiZmZ2fv3r1rs9lsNpvBYIDz12Qy6fV6uJhPgVqtnpmZ8fv9FoulWq2Wy+UbN2784he/CIVC8L9rNBqGYeBMP/LZ4XAIfUcWPMuyHMeVy+Vvvvnm66+/pijq9u3bkiSpVCpZli/HDlWs42w2+/TpU1EUv/jii7/+67+GU3t/f//bb79dW1srl8s7OzvIXzyi78PhsN1u12q1paWl27dvu1yuZrPZbDa//vrrr7/+muO4eDze7Xb1ej2qut51hO12O5VKPXv2rFartdttj8ezvLyMCLwoii9fvvz666/39vZcLlckEtFqtQgYnN8ZIhCuCx+ovgPkXxsMBrVaPRgMVCqVy+WKx+M2m81ut2u1WiX97izSqYQx/X6/2WzWaDQ2my0YDEajUZvNdnLuNgo1nU6nz+eLRCI2m63Vatnt9ufPn3c6HY7j2u12r9fTaDSXqVBYLlit1lAopFarp6en4/G4Xq/X6/XD4TCRSLAsOxgMKpWK2+3u9XpHPq5SqRAV93q9kUjE5/PxPM/z/NramiRJrVar0WhwHIfw7Cn0vdfrFYvFnZ0dxMZDoVA0Gp2cnIQXqFarWa1WlUrVbrcLhQKmVZJBTxhLPmh9p2katpvVavV6vaFQyO/3u91uxWWM1I4r9M/q9Xq/3z8/P+/3+1HqCelkWRaCjriu0WhEpsolDAmTokqlWlxc1Ov1NE1PTk6aTCb0WtBqtTabzePxoPlBp9M53jdCq9V6PB6sadCnAeO32+0OhwM95srlskqlYln2FMUKKHzLZDIzMzORSGRyctJms+Fa0zSNyRXu+Hw+z7Ks2+0+p3NDIFwvPnR9V6vVGo0GIcFAIOD1eo84E642+KbT6TweTzwed7vd6E/AMAxSCSHocJVoNJpLq/SBUDIME4vF4D3H6mcwGPR6vX6/zzCMyWTqdDrtdrvb7Q6HwyPfoNFonE5nLBbzeDx6vV7Jc7VarTabrdvtwso2m83HP/s2ICh9cHCAkAaiGs1mU3kDclslSSoUCk6nUxCEs5wQAuHa8kHrO/XKEa/X69FT5bply9E0rdFodDrdkUgjPCT4y+XXcOKIlUrl4OCgWq0iOoqXqtVqOp0uFApI6n/t8PCjDAYDsuyVv6vVaq1WK4qiJEm9Xm8wGJzup0mSJIpit9tNJpMqlWpvb89isSgemEqlks1mK5UKpB+HO8VRCITrzwet79BH6Due9uum7ygX0ul0R9wv9CuQE3LJEo9U90qlsrW1tbe3VygUSqUSXhIEodFoCILg9Xp9Pt9rBwY3zmv1HQ73M+q7LMtwWyWTyVKphNlRac0G6acoKhwOa7XawWBA9J0wrnzQ+q4Ay/HkTrOjdZjH26egpgbda893bIqpfsRTdOS/lybx6LLQbrfT6fTu7m6xWGQYZmJiAtnlPM8Xi0WO4+Caf9OXvHZaUv4Iv9lZPGOK283j8WCXS2XmxlEYhsEMFAqFTCbTqQ9EIFxniL5TFEUhDw8KdcLbFJE9ru9oxzgYDE7nMn6P6Pf75XI5n8/v7e0lk0mapm/fvr20tIRc0mKxuLW1tb+/f3xCUpBleTAY9Pv9I7YzWiMgken4kuXtwfrAaDROTU3dvn07HA7bbDaloTGunUqlQuYMcqVOcRQC4fpD9P1/+ckSIbwBBr40AoRMFMU3pYuMfgPAZABjX0F59fx/27mC6GU2m83n86VSyel0hkKhhw8farVajUaTSqX6/X6z2RQEQRCE164qhsOhIAjNZtNutysnQZKkfr8vCIIoiojQHvHegONT7PFDIGCLPBl0fQgGg2h4gKkF7Wiwu8gJW6wQCO87RN/fFhRDoegGmwoJgoB0EdRt5nK5bDY7mqdxBLgdGIYRRREtw1iWhbMYooZCp8v8UadAqW+iKEqv15tMJjQhwA9pNpuFQiGbzWIuRH/jI98gimKlUtnb29Pr9agZxmTAcVy9XlepVHq93uPxmM3mE9xlikPs+Es6nc7lcqFpfjqdRkscr9eLKQGpNbVaDTt5mc1m1K+d60kiEK4FxHJ5W9RqNfbVo2m63+/3XoEwYKvVyuVyBwcHzWbzTa5wZBaq1ep+v89xXKvV6vf7sFs7nQ4ay1zyjzoFMIGh7waDgWVZpb5f0fd0Ol2tVgVBeG2MVBTFcrm8u7tbKBQEQVB6ZELfBUGAvrMs+9rZTgksw71z/Pu1Wq3L5ULbhkwmk0wm6/U6lgjD4bBWq21tbf3www+bm5v5fB5tLC/mVBEIV8x1txavD6jrQeurqakptVq9vb09HA7RZrZYLHY6HUQF37R5BbaqiMVi/X5/fX29VCptb29brVa8PxQKTU5OXv9aG4Zh4PrgOO7g4IDjuI2NDY1GA29VoVDQ6/VTU1PodJ/P59PptMvlslgs6ACDM4O8oFKptLKyYjQa0ci3XC77fD6v1+v1et9UsaXT6ex2u9Vq5ThudXW1WCwmk0m3243e9HCmG43GUCi0tLSUy+VyuVypVHr+/Hm9Xsdiolar5fP5druNbmhIwL+KE0kgXDhE398WSJLJZIJ2NBqNFy9erK2tsSyrdC3H3nVv0nez2RyNRjmOy+VyT58+lSQJNf3oe768vGyz2a6/vmOPFJVKhdbthULh8ePHu7u7SEBCxPLu3burq6uZTGZ/fz8QCJjN5kgkMrrjkk6nM5vNhUIhkUigDKrb7drt9qmpqenpabTtVRL8RzEYDG632+FwoIMY+ubDGxONRuPxuFarZVk2EomwLKtWqzmOK5VKlUrlu+++Q8wDDYWcTqfBYHA4HBaLhTSfIYwr46bvKGr3er2SJGH/jRMS9VATHw6HPR6P1Wo9eQNreM8NBgP0PZlMptNpbLbHsixqXw0GQ7VabTQaTqfzuGpAd1Dkmc/neZ5vNptqtdpms8FFgz0ogNlsDgQCnU7HbrcjK1z5Fej9Eg6HIU/oFnAugVn0P7Db7cgweW1BAPrnoHGC3+9HU5disYgdM4xGI3o8NBqNXC6n1+sHg0G73e73+7Ism0wmv9/farXC4bDf78/n8/l8vlwuIwIRCoVmZ2dnZ2c9Hs+b2hLgGziOwzYsrVYL23dg2CiXhX/GarXW6/VKpdLtdiHxaHvpcDhsNpvT6bTb7RaLBd2Hzn7qCIRryLjpO8Mwk5OTcJJgze50Ot+k2haL5fbt2yaTye12o43tT/aZ0mq1wWBQrVZHIhHstAe7FR3EJEmamJi4e/fuwsLCkT4HFEXBb6DX691u940bN3q9HtJmYMVHIpFR4z0ej//6178WRXF6ehqFtUqaB8Mwi4uL6B0/PT1tNpt1Ot256DtWGBaLBbsyeTweZfNVBVSf0jQ9Ozur0+k4jsPflY2WnE4n2tFEIhGDwQCXi9PpVKvV0Wj0yy+/XF5e9ng8Xq93enr6xo0b7XYbkVIkpEOa3zRCi8USi8VMJlM4HL579y622TIYDNgwy+PxmEwmzMQURU1MTDAMMz09zfM89ryVJMloNFosFofDgZY+JHmGMMaMp75HIhHqVSDuhKx2i8WytLS0uLioesVPqqRGo8HuQojX4Y+jqY0QEcRRj3wWqSaBQGBxcfFIKBWSNPqR6enpaDQqyzJSbqiRgiaNRrO4uDg7Ozv6qXPRd9TxRyIRxUt+/NQhDqHRaGZmZqampo602FSqsSYmJj755BPlSwC2Z0JDY/Q0Vjjyzp8cIc6zcmjlQuPoOC3Y3+rIdt7H33z280YgXE/GTd8pijq+IdybgCn6Th0Kjwvxu36Woqi3SYI8+SijBffnyFv+OmjiyWN47Zec+tS96wjP63AEwnsNWZwSCATCeEL0nUAgEMYTou8EAoEwnhB9JxAIhPGE6DuBQCCMJ0TfCQQCYTwh+k4gEAjjCdF3AoFAGE/Gob4JpYnKhhtH2nuNFiu+qTBS2RkO202gZPRqKxsxJAX8BT8BvWiuvLAe7VyokbrTnzxj6PB18hZXo79xdC8U5Q1KoezolaXOqYL3jChd6ZUa5pP3bFH64//kr0A/5MFgMLonycX95NGnabTWGkcc3ezsHMeAs4cNvJSL+6bvV0aovO18z4aiCcqGXydXVl9PxkHf+/1+v9+vVqsHBweHh4fYLAKKoFarzWazxWLx+/2hUMjpdL72Pmi1Wo1Go1KpoN3V3Nzc3NyczWa7il/zv3AcV61Wy+VyoVAoFou47+12eyQSCYfDaK3zTpW3587u7u7m5uZgMAiFQmgSybLsa4ekzFW7u7svX77MZrMnfK3D4YhEIhMTE2azGT0mX758ubu7i1ehbmgSybKsz+fz+/1Op1Oj0VxtG0hF2ff29tbW1hqNxsLCwsLCgsFgQHu44x+RJCmbzWYyGbVa7fF4XC4X9ol9rYg0Go319fX19fVwOByPx71er1arvYjt4CFq9Xo9l8uhC16r1RJFcbRXks/nQ1c+bNp1XsLK8/zOzs7Ozo7FYkHvI7vd/qbdE+v1eiaTqVQq6GWETVrO8YloNpuVSqVer2NfNp/PNzExcbyp1DVnTPSd5/lsNruysvL8+fNGo9FoNHBHol1MIBC4deuWXq+32+2vtQharVY+n9/e3n7+/Pnm5uavf/3rQCBwtfreaDRSqdTW1tbq6urLly/RpnFiYuLTTz+VJAm7Ql+5vn/11Vfdbnd5eVmWZZ/Pd8IDBjM8kUj87ne/e/z48QlfG41GP/3004cPH/r9foZh0un0V1999cc//hGvMgyj7Mfk8/lu3rx5584dbCN1jkJzOrB/bCKR+Ld/+7dsNvsP//APgUBAWY4cfz/0/dGjR2gopNFocMe+Vt+bzebKyspvfvObhw8fok81y7IXoe+YqOr1+vr6+vPnzw8PDwuFQrfbhaVstVqtVuvS0hK6gVIUdY43Ic/zq6ur//mf/xkKhebm5uLxOE3TJ+j72tra9vY2eu15PB5sqn5eg2m1Wul0OpVKVSqVarV68+ZNs9lM9P2ykWW5Wq1mMpnd3d1isSgIgk6nw2ZssBlFUcxms7AITCYTGj0eeYRUKhXDMDqdzmg0oqXwlS/EGIYxGo1Wq9Xj8YRCocPDw1qtVqvVGo1Gu93u9XpXvtkTJsVOpzM5OYkmvScMCZej2WxilytMugzDHJ9ug8Ggw+EwGAxobtNutw8PD1OpFD6Cdr54jOv1eiqVUqvVPM+j//toF+XLBy4FrC0sFgvuopP3GW80GplMRq/Xh0IhURThHnztm0VRrFar+/v7sViM5/kjW5OfI1jLptNpbLE7HA4dDoeyR64kSTzPHx4e7u7uooPbyV213wmVSqXT6bChAmyFE9oHdbvdYrGYSqU8Hk+32z33EyKKYrvdRovpYrEYDodP2Fr52jIO+n54ePj06dPDw0P4CsLhcDgc1mq1g8Gg1Wptbm5ubGzk8/lEIoEWtSzLHpFvo9HodrtlWdbr9RMTE3Nzc7BNrhCbzaZSqex2++Tk5P379x8/fvz48WOtVmswGK52YGfHYrF8/PHHn3/+ObZDOXItzGaz1+t1u91Y++OPOp1uaWnpb/7mb2w2myRJgiAUCoVCoVAulyuVSjqd/tnPfhYIBN60K8jlACshHA5/+umnHMctLCyYzebX7hIOZFkWBAFrzWuyRyCspb29vb29vWKxKIri7OxsPB43m800Tfd6vWQymUwme73e9vZ2s9mkaRrLrHM5OvpdDwYDq9Xq9XpdLtcJ/bqxr0C9Xsfa4lwGMH6Mg76XSqX19XWO40Kh0MTExO3bt+/cucOyLPZxFkVxd3e30+mUy2W0g4eJhHUo9lDF7hMsy8JH7/P5jq98RxcEoigqjXBHg7pK79wjoSG8ZzAYiKKobOIBOaBpGr51eB4Ukxb+5UAggEPLsozdSk9ekuOdGKEyMLyEcB9Cx1fbVZFl2Rs3bvz617+2Wq34ya99G34F/q3T6WZmZn75y196PB5RFOv1+suXL4fDYTKZTKVSmUwmHA7fu3ePpmmtVvtOvw5nCZdgOBwqV+FNQ1J2lMVuugzDwC0D61uSJJ1OF4vFRFH0+/06ne61SwrceDzP1+v1er3e6/U4juM4DpcPUwKWKcedTriRBEFQqVSjgXcM5uypAfV6fX9/P51OcxxH03QkEvn5z3/u8/lUKlW73f7hhx9EUSyVSuVyWRCE6enp4XAoCAI2M0D84LVHx+OGwSNKjPM8eAW+h2XZqakprLOxscHx78Hux/V6vVar1et1nDrs/iiKIh49nLrROwHPL64grrhyHXG2mVe89rRgOmk2m7hhsCzDr8A1ug7h/eO89/pOUVS/30cICJujms1mqCTclPF4XBAEjUbjdDq9Xq/dbocoD4fDSqWyvr6+trYGKcFNRtP08vKyxWLBfnKjR8E20KlUKpVKabVayBPP8zzP4wk3mUwTExNKbBARP1mW2+02z/PYeDqfz+MLLRaLy+UyGAzlcrlcLgeDwenp6UAgcMJDcjL4UZ1OJ5PJZLPZZrOJgeHmc7lc7hHO5cxfJqNNiVUq1czMDMuyWq0WW3LXarVMJuPxeBwOx5ELdzKdTqfRaNRqtVKpVCqVwuHwzMyMx+M5/k5MsblcrtvtYiLBDla1Wi2RSKTTaWyK0mw2G42GXq9/8OAButUfD5lWq1UsK588eZLNZqHLuVzOYDAYDAaz2QxDJBKJRKPRI3HjdrtdLBY3NzdbrVar1YI4sizr9/t9Pp/H43G73Xq9/lTn+H/Vk+f5Xq+HnSNxG2OWwuY2d+7c4Tiu3W5rtVqfzydJUiKRePHiRa/Xu3Pnzp07d167hBIEodlschxXLBYLhYLT6cRGXdjDCxts1Wo1hHMjkcj09HQkEoFPdfR7hsNhIpHY3Nx89uzZ5uZmoVB49uxZu9222+3YIBOpB6FQKBqNulwufAqi3Gg0Dg4ODg4Oms1ms9ns9XoURdE07XA4HA6Hz+cLBoPHLz0mhnw+v7Kygu0keZ5HPN/lck1NTcViMcWqO91pvzjGQd9hCkmShLCb2WxG/has4Hg8jqiITqczGAxwvmMmL5fL33///W9/+1tYu2gHj/19FhcXj4igKIrwOK+srHz33XfYiNVoNEIXsImoy+W6f/++Wq1GsHFU38vl8ubm5vfff7+6ugrDIRAIxONxq9WKnIHbt2+rVCqWZWmaPl3cDPrearUSicTjx4/z+XylUuF5HqciHo/PzMzMzs4yDPM+6jv1ymTGBqosy0aj0Xa7vbGx0Ww26/V6Op1WqVTYC/ftv7PT6cCNu7W1tbm5uby87HQ636TvxWJxdXW1VqsxDGMwGLAHZLlcXllZefToEQxJ7BWFLb8XFxd1Ot3xoF+tVnvy5MlXX30FdZMkqVwuv3jxAgssl8sVCASmpqYoigoGg6/V906ns7u7m0gksPp0u903b968efPmcDjETpPvfnb/FzxN/X5fr9fDTFE2gIS+W63WTqfT7XZlWbbb7ZIkbW9v/+53v2s2mxqNZmlpSUlgPfK11Wo1m83CosKuZDabLZfLPX/+fHt7O5FI5HI5JL/dvXtXFEXEw7xe7+j3YDr56quvXr58mc/nq9Vqp9NJJvlUSxwAACAASURBVJNY9GAL+2AwuLy8bLVaR/V9MBg0Go3t7e0nT57k8/nDw0Oe57H0mZycjMVii4uL2N33yMih74eHh9VqdTAYwBrDXBKPxyVJ8vl81Kuc0VOf9gtiHPRdr9fbbLZWq1WtVre3t+FswXyOXAssoGDRa7VaZW2FDfNu3ryJBSbWy7VaDTvGHTkKFpiCIFQqlf39fZfLhfwtPMn4oFqtLpfLq6ureMxgekiSVCgU1tbW4Lh0OBzQIKwzms1mqVTKZDKBQKDdbo9uS/Su8DxfLpez2Ww2m61UKmq1GlsJYtXPMEw2m4UbyuPx6HS6d3VlXAdwHTUaDeLPNpvN4XDU6/V+v18qlZxO57sGwZTklkajkc1mY7EYXA2j4KDKPF2v1xE+xTwNTZmZmYHtmU6nd3d3m80mknRfezUNBoPf75+bm5MkqVqtqlSqYDDo8/mw16Pdbne5XKFQyGq1Hr9AWKyo1Wqr1bqwsNButzudDk3TpVLpyZMnBoNhYmICVsLpPAZ6vd5qtSKMj9Wqy+XqdDpGo1Gn0zEMY7PZTCZTv9+XJAnBVVEUG41GvV5vNpudTgd/VFyXmLRgHlWr1Waz2e128XGkL/t8vn6/zzCM2WxGUqYkSUh6Pv4YwtyemppqNptwmOBcYR5CIA2MTnLIfk6n0wcHB9VqVafTYXM0JYM+n89jl0ek+Sp+/+FwyPN8pVLBsgCPrc/nw7Wu1+v5fD6ZTHq9Xq/XexFb7pyRazegU2A2m7HRcyaTyefztVqt1+uFQiG3222z2dRqNfbkVBxtita73e6HDx9GIpFGo9FsNlOpFEyJNx0ID4wgCBzH4WKHQiG73W6z2Q4PD7PZbKlU4nn+yZMnLMvGYjF8SpKkg4ODlZWVVqvlcDgmJyexrse+z5lMBptrIyXmLI48juMSicTOzs7h4WG/349Go/Pz816vF66ntbW11dXVVqvldrvD4TAS3d47fVegaVqWZYPB4HA4arUaAoPwV7zT92BLcTzP2K0b3wCLDxKAGQUBxlar1ev1sMm4wWBQqVQej+fevXuTk5Pw8n333XeoxjjBmnM4HMvLy9gAFluT379//6OPPsJI4KUxmUzI6z/yWYRk3W734uJiNBqFqyGdTq+tra2srITD4Y8++ghjPsWNRNM0nib4u9LpNPzLjUYDm+gajUZk9GOJqZQjYJkCNaQoCrlDuPFgUcFz2Gq1KIpSSiU0Gk0wGGRZFnvkYnG8srLicDjetIRVq9WI91qtVjyJCwsLn3zyic/nQ+KNwWBAJvRoYmW1Wt3a2komkyglmZmZmZmZsVqtsNhWV1dfvHiRSqVgFGKTZHwQVv/BwcHc3By8RnCfrq+vr66u9no9rMslScL98K4n/KJ57/WdpmmbzRaNRnu9HvQd9x+sD4TgWZZFXYYSeoL9Do2bm5urVqvVatVkMuVyuRP0nXrloGy32xRFWa3W8CsODg5sNhvS1be2tubm5gRBoF6VHZZKpc3NTYZhYrHY7du3o9FoJBIplUobGxsQgl6vh4T9s5yKZrO5v7+/vb2NSBce9ampKZhC9Xr9yZMnHMch84SmaZPJdCU1QaIochyXy+WazebxNYSSIfeT3wNHltVqtVgsFEU1Go1Op3NycexxFG8PRVFwsiEMDjcrvNtardZms7EsC33v9/v4C/SdZdnRDcHb7fbTp08bjcYJ+g6/x8TERCKRQMLu7Ozsw4cPbTabzWb7ySRuWZaNRuP09PTDhw/h7tdqtS9evNjZ2SkUCjgJp7YSzGZzIBAolUoMwyAVMpFIYFLxer1wqsCWx7WDvmOtDH1HnBPpsO122+l0Op1OPDXNZlOWZUXfGYbBqzj04eFhu93OZDIWi+VNJ0GlUiFTttPpPH/+3Gg0TkxMfPTRR5OTk7hGr/1UvV7f3d3d39/HqYvFYvfv3/f5fMPhsN1ut9vt3d1dzEBYeClPoizLWNlrtdpQKLS0tISZg2GYSqWSy+UajUYymXS5XNckA+oI46Dvfr//zp07WNVms1m1Wp3NZnO5HO48l8vlcrkmJiYmJyd9Ph/uqlPf/Yrtr9TEWq3WUaGhabrVagmCoCRm4M5uNBpwJkSjUdwfZrM5Eol0u92trS1Yo2fUd7iSESQEJpNJydJxOp0TExO1Wq3f7yM+DHPsLEc8Ha1W68mTJ3Cwjl4LrF3C4fDy8vKtW7fe5quQZIJZ6uT88TcBPw9OFNx0g8GA5/nd3d3d3V0ovtPpXFpamp+f7/V6zWaToiiNRmO1WqHv7/jrz4rVao3FYpOTkyjWg6WJ1STDMJIkdbtdQRD0ev0pFmc0TVssFiTjS5KEQ7Tb7a2tra2tLYZhYBKFw+HJyclgMGgymWAlsCwL72Kz2Wy1WkqeZTabvXfv3vLycrfbxUsURcHkuszqPETOqtUq0h9QSIEljsFgmJubgyPe5/N5vV6Hw6GcOrVaDX8mCoxtNhtOuMFggNsKES8875f2c96eMdF3l8vl8/msVivLsshvKRaL1Wq11+sFg0Ekz2HVhhjdWY4IxYSZEwqFEFeBviNNGOkH0JrBYNDr9WAXoP4tEokgCQSZCZIkuVwuuHfPeCo6nQ6CvYijosZVyRVDPoZGoxFFMZVKncJVfV6gFHN9ff3ILIvMtrt379pstrfUd9QTofIT6U+n1ne4X6DviFH/5S9/QUEZpuT5+XlkauF8Iox5+fqO1erU1JTD4UDDANx7qAhDcQASxk73/XiIDAYDcnISicTu7m42my0UCnBLWiyWO3fuiKKo1+tpmjYajfBxwXKHe73dbieTye+///7FixeDwSASiahUqlarhafAbDZfcvU1nD+1Wm1xcXFxcRGeMYSm9Ho9HhYEkJG1qUgEIgTQd/h7MSsYjUaXywXXvBJrubSf8/a89/pOvcqZg2kMIQsEAugd0Wg0kGt8eHi4tbUly3I4HA6FQqeWeDh2YDPiOcffIfq4Y5SoGrJ0IBlK7gdyH/E9yBCA7/LstZeDwaDb7SJ/2WQyHRwc2O12xULf29vb3d3leR45ZAhwneVwp8ZoNE5NTU1NTSHn4Yj9Ho/H/X7/W37VaD610s/rnQaDC4HqZRTHwhdRrVZRl48oHyZpRNVgsV6VviOKaDQasWpR7iXYGUrM8NTmAmZZRBE1Gg2sokgkgvzFXq8nCALSlgRBgL9Cq9WazeZWqwX7neO4Wq1WLpexaqRpularIZKs6Psl2+9wuHW7XZVKZbFYcKGpV2dP6atxvFUZcurg0x9NqFeed4QWrqfxTo2HvuNiGI3GYDBot9unpqbwKPI8ryQaI9UdyYJnrLiDvr82HQojUcqdFH2XX/WkHBUgRVkwTxyv5HxXJElCpczm5iZSuEZrx9GWR6PRwHhR6nQuH7PZfO/evV/96lcw4kbdCPAPvL2+Q3n7/T78v6fwvMEzplarkQ6oVqvhhEGyI1ZmOp0Oy3Cg2O9v6gV2ocDreDxuQb9CSfs5y1F0Op3T6USMd2ZmBj22OI5D/WqtVltfXz84ODCbzfPz87DfTSYT7PdKpXJ4eNhoNJBCxrIsunRVKpUj8dUznYh3ARVhqAUZjcMB5ak8nt0AswyOxNFrTb8qb6Qo6tqKO/Ve67tyHyN+iNxnJWguiiJyGYfDYalUajQauVyu3+/HYrGzXA8lCee4c/O1yiK/6jJKjzD6keN/PDU4G7iVlTQPZZySJMHOstvtTqeTZdmrSp4xGAyxWOzBgwcn16++DbDL2u02/AmndjrDkW02m+FGoCiq0+kg/w+Vbsi/VIpitFqt0Wi8kl4Iillw/NDnMhg4qSiKQgwZLnhEkniexyV78eIF0tWRqM4wDPQd9juM9+Fw6Ha7XS6X0WhE9jASnKir0HdlWUNR1PGmQEpBO/5x5LKOmuqj36nMpqOfvW683/qOjLRqtVqpVFBNp1TuKJ2e/H7/7OxsOp1GsHs0OH7RKD4Z5QkZLW6GJwe9R/r9/tkbJMHh43A4ZmdnZ2dn7XY70rTxqlL7jhBZIBC4kuDqeYGL2O124TeAlKCk4BTfBn23Wq2SJKFaDXERi8Vis9ksFkur1drZ2anVanin4k+7fH2/UGRZrtVqSK9yuVwOhwM3sDIFBgIBmqbRXRJ+Z5hWiGEo8VWe5/V6vdvtnp2drVartVoN9UHInrz8+CrWZ3j2u90uhqr85MFgoLgrEa+62l7T58h7rO9KI45isZhMJpGZq+g7TGyz2RwMBtGw4uDggOO4S9Z3rKbhpANK14tRfYeP/lz03W63LywsfP7556FQyOPxmM3m46M6x0XDFSLLcqfTQW4rTdMoNDudaqhUKoPBYLVaZVkul8utVms4HDqdTofD4XK5tFotytAUfX8fS8Peklqttru7C1+E0WiENwNrVp1OFwgEXC4X8uLh0e71elg6m0wmZEBC4nU6ndvtnpube/Hixd7eXqFQqNVqaO1w+fY7fCxIZzje6xRrfQRIlYjxpY3tQnmP9R0KpVKpyuXyy5cvNRoNrhnsU4Zh4Lqp1WrZbJbjOASmDAbDpekabAG9Xm8wGGAsNxqNfD6PEBOC78lksl6vU6/z/R3/sdSrWe21MwGKuavVqiiKyWQSNTg4D7IsVyqVSqUyGAxw9CPe+fcFzIgw2yuVyt7eHs/zWLWEQiGHw3E6ywv6brPZut1uoVDQarVIE0R2dq/X29/fT6VSzWYT6fnnZd8hlgOjkuM4nU5nsVgQMUbJ8SXvIybLMsp5EEStVCqhUCgYDBqNRtgo9XodPTspijKbzQjzou1HtVotlUrZbLbf77MsixUVUoG73W6r1ep0OmjMh2njjBOk4qcSRRGtlmCVH4m3481Yx9M0zfP85uamLMvIOIIPIJlMJhIJWZYxo7vd7otorH8lvGeP9xEQ7y6Xy2trayh31mq1kUgEvlHkikFDa7WaVqtF86lLi4kd13fU9fj9foPBgD1J9vb2UH75k85cRd/h5zm+ClH0XRCE7e1tBJw9Hg/eXCwW19fXBUEIBoPosY6g7sX9/IsAles8z+/t7W1ubu7s7MAV4HA4wuHwazsOvg1Yv1utVvR4QKJ3OBzGA18ul5ERr4Rhz8u+g2+XoqhOp1Ov181mM6xIrOeQ5nHJy6xms3lwcAAfej6fHwwGNpsNkWQ0ZN3d3S2VSrIsIzKBHDB4AlGdZLVa7XY7NmCChdHtdnmeVzYJgW1xRn1X3OL9fr/RaLRaLTTD6ff7giAoPTjxZrRixZ2zvr5utVrRnwAOgEQi8f/+3/9D07rp6Wksgs/jXF4979njPcpo/olOp2u1WkpfvUajodPpJEnieR47sKDnF3QNJRvoA4XsCyRLpNNpZIAVi8WtrS0UqarValSsnSK3mn6VTIm0dywm1tbWsFMHai5wRHiTTjDhEUvArby/v4+6atggmDxMJhNKIgVBQAukbDbrcDhQgiFJ0u7u7t7eHhJUziXFAgiCUCqVEolEo9FA0s7oq4h4syw7erher5fL5VZXVyGUR55zZUZE4gr+OBgMisXixsZGsVhEHxil/gh9MZE6dbq+m9SIfyafz3Mch6uGuwV18IPBoFKpOJ1O9K3VarWyLKMeCslaKFemKCqVSiHMUygUtre3i8Ui0hnhlBht+0PTtMlkwvYUtVpta2sLjdJgkzIMg90HLzlFR6fTmc1mZFvxPI85BnnfqJxIpVI8z6PBC7bow5xnNBrx7BiNRrvdjmJXFJMrS23VSAPt4XCIVQvHcZjVKpUKltqYR9VqNdwpKD7HTa4EjaDCbre73+/v7+8PBgOO4xwOB5oiOJ1Ov9+vbMFms9lisRhWseVyOZ1O2+32crkMfU8mk4eHh+gorrQmvMxzfnG83/qOIOrk5ORnn312cHDQarXW19d3dnaUTRVQXiyKotfrnZmZmZycxJZpkCTs31ipVLrdLpb8qVSK47jnz58LgoCbQ6/X37t37969e3DenWKc6B519+7dXC5XrVZzuRw8SLB9lK5nSn/R195b2GsUvX83NjYw5Xi9XnTLQyNZm80G62Nzc5PjuEwmU61WNRqNUviDXndIekO549muAEVRFMdxL168SKfT8MAe+c7p6emPPvpoZmYGjyj+iPompTnBkd+L2C9+VCQSwR97vR7afaBvgfxqs2m3272wsBCNRmOxGFwZp9Z32O9arRbTLVY/qMSpVCooHdJoNJBp3Ay1Wq1YLGYymb29vcPDQ3wVijZxF3W7XQgcsgzj8TiqqTELImYwNzeXzWYPDw/39/eV/jOou15eXna5XJfpC6ZpOhgMfvzxx263O5VKYRre2dlRLhP6YJvN5sXFxWAwGI1GYWCxLGs0GiVJQlKpy+Xyer3oFqBsaAW/Iu55iHu1Wn3+/PmzZ8+63S5FUbDGUqlUqVRCXwQk8KCsFEWzyi2BBqLokPrs2bO1tTXk8KAZzs2bN3U6naLvLpdrbm5Or9dvbW3V63VcL8wfqDB3OBwTExPxeHxqauq97st0hPdb3zHZxmIxg8GwsbHx6NGj7e1ttPwfDodqtdpgMKCgye12z8/Pz8/PQ1Mqlcra2tqzZ89wPyk7DyCVZW1tbXd3F1KFnLnJyUmn04nUF6z7jkzyoxbKkVeh7/fu3WMY5i9/+cvz589hwkQikfn5eYQElQTbN8kTuj4VCoX19XUEGxiGmZiYWFxcvHHjhk6nQ+NWrJRh42cymcPDw3q9DimMRCKxWAxFrU6n8+ztTPFLsQpBXsTxwT98+BBxNpvNpiyZO53OixcvVldXX/u1Xq/3xo0b2FTT6/XilA4Gg42Nja2tLfzXYDCgCcnMzMzdu3exU9JZXNWK/x2p7rIsm0wmVLFDvBAkxxxgsVig71jz/fjjjz/88MPGxga+qtfrdbvd4XC4vr6OBRNE87PPPoO0ob4GB8VtCRPy5cuXSK9iWRZ96Dwez507d/C19KvGGMqFO3L74dUz2p40TSOMYbFY4ATb39/HnvUURTEMg7apd+7cWVxcvHnzJtzrynbnFEXxPI/OfbAkKIpCUAEbbw2HQxjmg8EAW+48ffr0t7/9baPRoF5tYIuEHPUrGIZBa+vbt29bLJZRfY9EIjzPP378+OXLl/V6XZIkhmHsdjsaDMTjceV3YeFlNBqRwo9sOhTcqtVq7IQ+PT09PT2ttAU8/kQfOVGjUnBtTf73WN8VUCscj8chedhmQWn7B1N3YmLC4/EoaW0ej+fWrVsOhwPZF0o5krKJj2JN6/X6jz76CLUeWJU/ePDAbDajDaQyBtziExMTn332GboDKi48VAP6/f7hcGg0GhcWFnBPYEsBSZL29/fhIodb4LWyCwPQYDDAvMKNZbfbA4GA3+8PBAJYBaNdxvT0NJLY0HILzxVSQfD+c/HqTk1Nffnll4uLi3BTvPY9k5OTS0tLTqcTNmk8Hv/7v//7+fn5E46O+qZAIBCJROBx+vLLL7GPlfJQobwIXlTMWGcMeGo0GmzQiPI3mqaXlpaU3ZccDsf9+/dR8uN0OkOhEFpKOBwOrBvcbve9e/fwVWhPBq1RXBNWqzUej8diMafTqQyVftXqVqvVer3ee/fu4SaEL8Llcs3Ozipvtlgsy8vL6H2IPSZHf7LH4/n0009tNtvS0lIgEDhL9T/DMHq9XunpBEcNemqqVCrYyDCl4X5BEjB6qX7++edms3l2dnZxcdHr9aI9RigU+vjjj2OxGLJOb9y4gbUjdmu4f/++Xq+H/a4syxRhBWgPACtNGSc2YMB8OT093el0cPngxpmbm1Oav1OvMpVtNtvc3JxWq+U4rtFooPAQVxzOW8XepygK7aGMRiPSgSKRyKhTHg4fi8WC7XBnZmaufEfP1/Le6zvC8ajcCYVCiOHABMOjBWMZTmpYYRRFeTwelmVnZ2eVrS9H6xRG0wdVKhVMNvQegIGMe3T0bsCyAK72O3fuoM2eMkKYbKitFQRBGZhOpyuXy48fP4bhBkV4beUUJhi0yjvyDXB9QEpQaYJ9oJQdqZTMd7i2lQjzGSV+enra7XYrndRe+x5kVphMJkxpMzMzbrcbgY03HR2pbHDBGwyGSCRitVo/+eST0Y/AVlUu65u2wXt7oO9WqxWeNJqmlaAiTv6DBw8WFhaOnEO08g8EAjdv3lRmOGg09cqmVr4fujPa0wL6bjKZgsHgrVu3lIajsFs1Gg0WCngzNq2FjiD9afQ+cbvdn3766a1bt5Rt7U69OMMSwe/3o7UqBFf5RTCocQZgieM+VKvVaMJ+9+5djFC5J9FDGxUe+CE4e0hDvH///sLCgtK8BWePHtkhhKZpuFxwSyjjhL7DsMOCCX/H2WNZdjQzGNcR+h6JRJRHg3rVhVR5jpSPmM3maDQaCARwBtCxWXkV3UOx6fZwOIRz8nQn/EJ57/WdetV/Bmvnt/wItOMUx8KGIUf2lKFeZfLAP3ukvB7Zb9hBED5ctIRFbKBSqahebbap1J0fl6ojN98JKLbtKX7dO3GKo5ziIzil7/SRUwD/DEKsx1/FyT9+0aEL6E58CuDwecv7VqvVwox97asY/Nv3dTgBJfP97cvfcPPDRRMMBo+8+ibtwyRtMBiOn9i3AU/9W6oq7CFcr7fMjcHD+KZXR4P/15lx0PdrDvZvSiaTHMdhH23Ulw4Gg2q1enh42O120dwKvQDHJrZDIBCuFqLvFw5qvnd3d7H3Akx1j8cjimIul0NXHFj0SlNAAoFAODtE3y8cuFmnp6dVKhUSsx4/fpzL5ZQNbnQ63cOHDxcXF8emqoJAIFwHiL5fOCqVyul0qlQqpMEVCgWIO141m81LS0s3b96cmpoaDdgSCATCGSH6fhmgfUcoFJqdnVV22KEoCvv8zc7OxuNxr9f7Xjd0JBAI1w2i7xcOEshomp6YmNDr9cg5G83NQlY1MsSverAEAmF8IPp+GSgZnG/KbyMQCIRz57J3FyMQCATC5UD0nUAgEMYTou8EAoEwnhB9JxAIhPGE6DuBQCCMJ0TfCQQCYTwh+k4gEAjjCdF3AoFAGE+IvhMIBMJ4QvSdQCAQxhOi7wQCgTCeEH0nEAiE8YToO4FAIIwnRN8JBAJhPCH6TiAQCOMJ0XcCgUAYT4i+EwgEwnhC9J1AIBDGE6LvBAKBMJ4QfScQCITxhOg7gUAgjCdE3wkEAmE8IfpOIBAI4wnRdwKBQBhPiL4TCATCeEL0nUAgEMYTou8EAoEwnhB9JxAIhPGE6DuBQCCMJ0TfCQQCYTwh+k4gEAjjCdF3AoFAGE+IvhMIBMJ4QvSdQCAQxhOi7wQCgTCeEH0nEAiE8YToO4FAIIwnRN8JBAJhPGGuegDnhizLJ7+BpunLGcm5I8vyZQ5+9Exe9HFxrIs7ypvuigs64kX/HALhnXjv9V2W5UKhUCgUyuVytVrlOO61b/P7/dFo1O/3m0wmk8n0vjyBrVYrl8vl83mXy+V2u1mW1el0Wq32gg5XqVSy2ezh4WGn0+l0OqFQaHZ2NhAIUBejWclkcnt7WxTFqampqakptVqtVqtVqrOuKWVZlmV5OBzm8/nDw8NqtdpqtXieV6lUarXaYrG4XC6Xy+VwOJxOJ8OczyMgCEIymUwmk06nc2pqyuPxnMvXngs8z9frdZ7ncWasVqvdbjeZTFc9LsKFMw76fnh4+Pz5842NjUQikUqlXvu2O3fufP755yqVyuPxGAwGtVp9yeM8Ha1Wa2tra2VlZX5+fn5+PhAI0DR9ofr+448/Pnv2rFKpVCqVhw8fsizr9/svaDrc29v7wx/+0G63f/nLXwaDQa1We3ZxpygK4i6KYiaTefr06c7OTi6XKxaLGo2GYZhwODw/Pz83Nzc9PW2xWM5R39fX1//nf/5ndnaWZdlrpe+tViubzRYKBVmWJUkKh8M6nY7o+4fAe6/vFEWp1WqNRqPX641Go8Fg4DiuVqtRFKXX63U6nfEVGo1GrVa/L5Y76PV6hUJhe3vbarWGw+F+vy9J0kUcCJYdx3H7+/vPnz+vVqvVatXtdheLxVarpdPpdDrduZ+6RqORSqVarVa1Wh0MBgzD/KST7W3o9/v1er1eryeTyUQikcvlut2uVqvF+BuNRjKZ7Pf7DMM4HA673a7Vas+i8jh1vV6vWCxubW0ZjcZ2u332X3GOCIJQrVbz+bxKpVKpVHa7XRTFqx4U4TJ47/Wdpmm/369WqycmJpaXl8vl8osXL54/fy7Lstvt9ng8gUAgGAyGw+FQKOT1eg0Gw7kYiZfDcDjsdDr1er3T6QyHwws90HA4bLfbpVIpl8t1Op1ut9tqtcrlcrlchgi+L1Nju93e39/f3t7e3d2tVComk+nGjRuhUKjf7/f7/VKplM1mnz59ajQa3W63LMs2m41l2VMfTpblwWDQ6/UEQWi324IgXOiVOgWiKLZaLY7jDAaD0Wi86uEQLo9x0HePx6MshzudjtVqbbVakiTFYrGpqamFhYXFxUWDwTD6KUmSJEmSX6H8ffS/cNfCk0PTNP4uSRKkkH6F8hFEQfERvKR8rSiKg8GApmmGYZQvVI44GAwGg8GRww2Hw8Fg0G63G41GrVZrNpvQXJ1OxzAMTdOwxc7LYT0cDvv9fqvVqlQqxWIRv6jT6VSrVXg2bDbbGY9yaXQ6nVQqtbKyUq/XG41GNBr96KOP/uqv/orneZ7nHz9+nEgkNjY2EJIxGAwGg8FkMsF3oVxN5VpQFIWXlFeV04539vv9brfbbDZbrVb7FZ1OB59V/V/wR0mSlIuOPx65i074iFqtZhgGf1fuIuVV3GCjn8K0jUWt1WpVq9WCIHS7XYwQd6zyhYQx473X99PBcVylUmk0Gt1uVxAEPLqDwQAmHp40p9MZjUZDoZBGo9FoNKIo4jFOpVLpdFqr1dpsNp1Oh+d5MBgMh0OTyRQKhYLBoMlkgkeIoqjBYLCxsbG+vq7T6eLxeCQSQYwUT1S73V5fX9/Y2PB4PNPT036/H6+m/A1gzwAAIABJREFUUqmdnZ2XL1+ura1Vq9W1tbXhcLi6ugoTzGKxmM1mn88XDoe9Xu8Zz4YkSc1ms1qtViqVwWCgeLRYluU4LpvNsiwbCATel6CFIAjFYjGRSCDUOTMz4/P5jEYjwzAGgyEQCESj0WazSVFUOp02mUx2u91sNiPkgKup0+kmJiYmJiYgoN1ut1qt1mo1vGo2mycmJvx+P+6WbDa7ubm5vr7+7NkzjuN2d3e/+uqrZDKJwbjdbp/P5/F4EM7FH8vl8tra2vb2ttfr9Xg8NE1jboAdwLKsy+VyvgK+o2azub6+vr6+Hg6H4/G41+vVarU6nQ5fWCqVNjY2ksnk1NTU9PS03W7HS7lcLpfLvXz58vnz56lUCjdPKpVaW1uz2+2YCWZmZmZnZ91u9+VfKcJF8+Hq+97eXjab5TiO4ziY5L1ej+f5drsNuY/H45999pnD4UA8FuZtLpf74YcfvvnmGzzk0IVyuSwIgiiKLpdreXmZYRiXy6XVaqHvw+FwfX39N7/5jcVi+bu/+zuoCV6iKKrdbj979uxf//VfFxYWaJo2m80URWm12nQ6/ac//enp06fZbLZSqaytrR0cHOj1eoZhtFqt3+8PBAI3b97U6/Xnou+NRiOXy1UqFVEU4bhwuVwsyzYajUwmEwgELsjvf+7Isgx9393ddTqd09PTCwsLyJsyGAySJAWDwWg02mg0KIpKp9M2my0Wi/X7/UKhkEgkisVitVplWZam6VAohCmt2+3m8/m9vb1SqVSpVDAH+3y+fr/fbrf39vb+9Kc/ffvtt0jfSiQSHMd99913GM/c3NzS0tL8/DxN0w6HAxNGuVz+5ptv/uM//mNxcXFxcZGm6UKhUCqVut1ut9v1+XwzMzPxeHx6etpmsyn6/vjx49/85jcPHz5kGMZkMiGZCkcpl8t/+ctf/vSnP33xxRdGo1GxHjKZzJMnT16+fLm+vp7NZhmGQaTKYDDo9XoYLl9++aXb7Sb6PpZ8oPouimK73a5UKgcHBwcHB06n0+12W61WvV7PsmytVqvX65VKJZ/PZ7NZj8ej1Wph4He7XQiB2+2G39ZoNHq9XizPRVHM5XIMw8zNzUFQKIqSZbnRaBwcHNjt9mazCUtf8QINh8N6vZ5Op51OJ8/zoihCSQ0GA9L4qtWqLMv4r8Vi0Wg0Op3O4/FgwMoTfhYwwmw2W6vVMHn4fD6fzydJEsdxNE3Pzc29F/qOeRqRg3q9rlKp3G631+s1m82KvwXWscvlajablUqlXq/3ej1JkgRBgCusXC73ej3FwYKv7Xa7eLVUKun1ekEQ4EVRq9UGg8FqtTqdTnyDyWTC1cFnvV4vkhGVGZ2iqF6vVy6X9/f3LRaLw+GwWCw6nc7r9SItlaKoTCbT7Xb1ej3mGJVKJYpirVZLpVKTk5M8zw8Gg9ErIghCuVxOpVKVSqXb7Q6HQ0mSMDa73W61Wo1Go16vh7KbzWaLxYL1JcMwdrt9dGyEceID1XeKomiaFkWxWq0mk0mXyxWPx8PhMFzbWAjTNF0qlba2thCCo1554WHIO51Ok8kUDoetVqvVai2Xy8VisVwucxz35z//Wa1Wh0Ihh8Nx6uFFo1GNRoMVfTabnZmZefDgwcTEBMuycP7g0XW5XGc/Fcocw3GcyWSKRqM+n8/v9xeLxUKhwPN8o9F4L/QdcU743Hq9HsMwuDqjs6BGozGbzTabrdVqNZtNzKmnOxzM5Gg0+ld/9VcOh+PRo0ftdjsej//iF7+4ceMG3oNkc5vNZjabR0MyiNDAYvD7/ZFIxOv1wi2+u7u7urqayWS8Xu/i4qJWqz1dRqxGo5mYmICOC4KAfCGn0xkKhcLhsMvlgn8/GAwqjiPCmPGB6jueruFwyPN8uVzWaDTRaPTWrVsmkwmJgPV6vVqt1ut1SZJcLhfiWvgsHPEURVksllAoFIlEIpFIoVDIZrPr6+u5XO7JkyexWKzdbp+l7tTv9/v9fr1ev7W1BXfw8vLy4uKi3W63WCzndiJeBQ/hZ2+1WtAjHL3T6fA83+l0OI7r9/s6ne6aJ5jCyQZxF0WRYRiWZUe9YRRFMQxjNBqhtgiEDgaDUxyLpmn4N3CZbDZbqVRaW1sLhUIPHjz4+c9//jbfgJNvsVhmZ2dv3rwJ/8xgMHj06FEikcjn881m02QynS7ywTCM1+v1er2CIORyOUEQAoFAIBCYm5tbWFhA2RphvPlA9R1oNBqLxeLz+VwuF9awEAKYxnCpt9ttrN+VZwxzA8uyPp8vFApZLBaaprEqL5VKNE2jYLLX643OCtcT6Eu/3+c4DvnR4XB4cnISulAoFNRqdbfb5TiuWCxKkjTq872GKGkkWG2oVCq4IEaTQ1QqFcMwWKjBj3EuSfengKZplDUgPEBRFCLALMtarVaz2TwcDqvVqnJbEgjvyget71i/BwIBRd9pmpYkCeYY6m54nlcyagAcryjsDIVCkA+TyaTVaovFIk3TtVqt1WohD/o6W7vUSGYkx3G5XA6+2qmpKZQO7O7uMgwD+71YLCJh45rrO/JKFX2HlI/qO7JUNRoNrvVoLOSSUfQ9EAggoovZSNF3SZKQ1Gi1Wq9khIT3nQ9a31UqlVarRehpVAVQEKtWqxFTHTXxkC+s0Wi0Wi3qY6HgCILpdDqVSgWJEUVRFMVrnlbc7/ebzWaxWGw0Gv1+X6PROByOQCAAfbFYLIghd7vdbDZrMBgsFstZSoEuGiXmiYuC1clwOBwtT1WS2SH0V5j6TdO0TqdDQAUWOpaGDMNgHpUkqdPp9Hq961YwRXhfuNbqc9FArLVa7ZEqIaV2ifq/FU+jH9FoNCqVSnmboiwAYdh+v3/Nn0xBENBTDPngJpPJ6XR6vV7EJM1ms8fjcblc/X4/nU6XSiVBEK56yCehGOxwi2FpciTVBHM2pl69Xn9eTW9Oh1qt1ul0uJeUPyq/AneRklJFILwrH7T9TlEUiveOe8lH60uPv4T5YLRIVSlwHS1qheE/6qI5MluM/vFKvATIq8tkMhzHwapVigBomm42m3AatFqtVCrl9/uvub4rSytY5Uq4ddR/jT/2ej2KopAGPhpZod58jS7CU68UPB+ZY5RbS6mbHR0h9brbUh7hfAdJeH/50PX9XVEc1orfRnkO4ZZBejsie1gZ4D1vejKVZodHzMzLAaVAyWSyVCqhrP+///u/k8kkRntwcLC3t4cWLizLTk1NXXN9ZxhGKd7R6XTD4bDRaDQaDa1Wq7iV0IylXq/Lsmw2m4/4Rl4r8co1OndnPe4lfLPyR0mSRFHs9/sURSkrxeMjHP2e0RGe4/AI7ztE398ZPEhYNSs2u6LvSnca6DusSGrEIrs07XgbBEEolUqpVKpcLqPXTalU+uabb/CqKIrIHUKTFpTpXvII3wnYwhitXq8fDAbQ99GMUlEUm80mx3HQd5ZlR/Wdep39fgn6Pjq1I6MJ+j7qvTkywiN3EZxOVxguJlxDiL6/G3iu0LOpWCzm83m0gmm32/V6vVQqDYdDm82GPHqsuxHfgx8AtVEolEe7wUKh0Gw2R2eLI8DngCPyPI9OWJhI6JGGZe8KDtdut8vl8uHhodlsvnfvHjpt6fV6vAczFs/z+Xw+n883Gg107NLpdMp7rhWQP71e73K5otEoRVFouqLX6x0OBxZJxWLx4OAgl8sFg8FQKOT3+41GI9Zb6C0qCIJKpULSFOj1erVa7eDgACmzxw8KL58sy5gRBUEQBAGTDRws1P9tWAZkWW42myhsZlkWI0TEu9Fo8DyvVquVbhbKCGma7na77XYbKZVoiVMqldrtNsT9BI8ivhwp/7iNcReh0Gl0lUkYD4i+vzN4hNCLJpPJoJuYstHScDhEIwHk5OCZ0Wg0yGLu9XrNZtNisciy3O12S6XSwcFBvV5/UwxNSdcZDAbNZrPZbNpsNugIFGTUffxOYMHR6XTK5XKhULh9+/adO3dQ1qhk40FucrncH//4x0wmg4TRarVqt9uvp74D9OSJx+OyLO/t7VEU5XK5QqEQqkPz+Xwqlcpms8j0D4VC2M8LmVRQT/jolSBKt9stl8vpdBoFTUcONxoOhbijTAl1pzCrKYrCfD/6QZSVpVIpu93u8/lkWcaUz3FcvV5vtVpqtdrpdFqtVjRn1mq1GGqn00ElGkVRrVarWCweHh42m02k8x8/IRihSqXq9XrYyAnOQFxfJQR1zYvXCKdgHPQdjXNRtYg+Wainr1QqaJiHJhtms9lgMOBRPMvhkCeDzJNMJgOTLZfL7e/v5/N5hmGwPdtoo3mWZb1eLzy/qVQK1jf0vVgsdjqd0U6wo6ACy+12S5KUz+e1Wq0gCM1mE4t6fO3pEtLR1bbRaDSbzW6363Q6b926hT6CSitgPP/YJcNkMqEFSqlUQu/Ma6sFer0+GAwuLi5mX7G3t4csz06ng4lKpVLZbLZwOKxcKRS1QeIx7aVSKSjy4eH/b+/Ontu2zj4AYwcJEgDBfTVJUTu1xo7tepJO25l2kvb/bKcXnelFJ81Fk2mSJo0lJbYsKZISa5dFLZS4gDu27+KdYPiRTlIroWjB73PhC9JHPADIHw7OAc4plEoleGgZBlS6Pw5a1tDv7/F44Iy4ubkJ9zhCu5jneXtOx24wZQ2c5nmeh1P46empaZr2/akejwe+tPCsBsuyV1dXBwcH0Po+Pz+HWc9gPgZ7tuHuT+E4Dv4aLPQBwyrtdht6gXw+H3wKbMtADw26Ybc+3y3LOj093dvbg4VDIWf39vYIgoBJBJ89e+b3+8fHx2dnZ0dGRiRJ+jlPi8CPGVKgVqsdHh7u7e3BOB4M2fn9/lwuNzY2Zq9/RlFUNBqdnZ09OTkpFouFQgHmt4JGGUxVL4qiIAiQHd0/TrfbnUwmFxYWYPm37e1tURRFUYS2YS6Xu3v3rqIo19hpqqpCLhiGAZ0DkUjE7/d3N8zh0gEezc1ms4IgQDqIophIJK69DwfN4/Fks1nozWi326qqLi8vb2xsQFeJYRiSJL399tvj4+ORSESSJDgQcMY6Pj6WZfnk5GR9fR16omDyFliNFsbPe44RXEWJohiLxUZHRw3DePz48ebmJjys5Pf7g8FgIpEYGxvrPynCdwlq+NVXX8H8Ys1m0+/3p1KpbDbr9XphlN7lct25c+fu3bvVanVvb+/w8BDm+IQ/CKvLwgR5ZNeaBMDr9aZSqUaj8e2330I/2+7uriiK0KrI5/Ow/gk+KOs8Dsn3p0+fPnnyZH19/dtvv4V2DUEQdpciRVGPHj2Cx+thheVrfxxcJkM3aL1ePzo6Ojg42N/fh09MJpMjIyPvvvtuLBazb9igKCoSiczOzpqm+fjx442NDa/X6/V6YWZweIzFzvee62u3251Kpebm5lZWVjY2NmDlDZIkFUVRFOXRo0epVGpycvIaO01V1UKhcHFxAROO+/3+aDRqT2Br1xz6BMLhcCaToSgKuqETiYT1M6bWGTRBEGAtdbg76OzsbHNz8+TkBHpXcrncwsLCwsICzKIOPR6WZcEUYJD4BwcH6+vry8vLgiB4PB6YHjKZTMJs0j2tY+jZkCQJ8n17e3tpaeni4gLSM5fLTUxMzM3NKYoyOjraXdDuuFNVdXd39+joCG7chKmQ5ubmMpkMnMsJgnC5XKlUStd1OFednp7CtygajcLEZD353v1BoiimUql2u727u1soFK6urmCcHK5ua7UazDs2uHV90bDc+nwnSTIcDufzea/Xm81mT09Pie+vT7sDaGxsbHp6OhAIQNNbkqRMJiMIAlwRj4+Pw8TrUEpRlGw2K0lSOp3udDrZbNblcln//yknRVHGx8fT6fTo6OjFxYX1/ZIgExMTsVhMlmW7KQSPoSeTSdM0BUEYHx+HK3dRFKFrNZ1Oz87OZrPZ7t8zcLlcsViMIAi3251IJCqVCnyQx+PxeDyjo6PXm/wd9gDM6u71eufm5ubm5uAR+f7/7Ha7R0dHNU2Dc5vf74clKa7xuTcDuptJkkyn0+12OxaLFYvFq6sr6GWORCIwJRwskdH9eBpJkolE4v79+/F4HKIW1lqBBVW8Xi/MRwaTN/R8KM/zmUzm0aNHmUzm/Py8Wq3CHwyHw7AMS/8E6+T38xN4vd5kMglzR+u6HgwG0+n0nTt3QqGQ3WUPjxbDJYjP5yuXy/AEtSzLPp9P07RcLlepVGZmZmA2m+6WOPQOpdPpBw8eSJJkT7kBE07k83kYhMDGu/M4Id+j0ajX6x0bG4NeeOJl+e71eqGBBhOPwNJL8Xgc7nSETg/7D8JpIJVKwbAnDJZC9yvx/fiq3++fmpp66623oB8TPpHjOLidBq7N7T8IE3wripLL5RqNBtzMACt1kCQJUQLtRGjF2zWHfFcUBeaP1DQNPgg6ZL1e7zU6Z7qrBBMjt9ttv99vdyj1gHyHRIMW/Q+dCV4T9u0id+7cURRldnYWjpHdFW5PsNw9EgOXeolEAnrqoSfHfiYZpqyBgROe5/svATmOy2azMAs8zF5JfD8DAaz83r/T7HxPp9P2Y8+WZdmLwsPCMvCfWZaFeeQDgcDk5CQ8fwsdaCzLwoNpmqbZ8yF3j+XyPO/z+WBWpZmZme75eaDVb3/xBnRE0LDc+nwnCAIuVF+pCKx18NK3SJKEG6h//C+43e5QKJROp3/ys+BHDqHwqs1thmHg3POLL68De+B/GYqAluPPmcv+5kFYv9LMXBC+kiRdr/uOpmkYqHylUnAIotHoT07sAyPAsJbINeoGPfi3aBFd9IvA4fLrwEdI0C8Iv05oQDDfrw9/luhnwq8QGijMd4QQcibMd4QQciYnjK/eDBihkmU5m83eu3dvbGwMV9X5mUKhUD6fbzQa8Fjmm/N8vCiKo6OjDx8+HB0dhVu58N4VNAiY7/8ruC8wHo8/fPgQ7k2GO9PRtY2MjLz33nuapt25cwcm0nlDno8PBoPvvPNOOp1OpVIwfxHee44GAfP9fwW3nMPDnIuLi8OujhOkUqlUKjXsWgwB3G967969YVcEOdwb0VxCCKE3EOY7Qgg5E+Y7Qgg5E+Y7Qgg5E+Y7Qgg5E+Y7Qgg5E+Y7Qgg5E+Y7Qgg5E+Y7Qgg5E+Y7Qgg5E+Y7Qgg5E+Y7Qgg5E+Y7Qgg5E+Y7Qgg5k3PmB261WqqqqqpqGIZhGLCyJUVRLpfL7XbDvz2zbOu63mw2m81mq9VqtVqGYcDrDMOwLOt2u0VRFAShu4hlWZqmaZpWr9drtVq73e5+F5aoVxSlp26WZVmW1Wg0yuWyqqrdb9E0LYqiKIocxzEMY0+ADkVarVa5XK5UKt1FSJKEIjzPMwzTszSEruvValVVVU3TDMMwTdOuG+wH0FO9RqNh7wdN0+y6sSzL87zX6/V6vT2Ts8N+aDab9Xq9Xq/3bJSiKD6fr2eHw0Fpt9vlcrlcLvesPur1ekVRdLlcMBVzdxFd16GIruvdRQRBgGPUXcQG+wGOrH1w4cjau6Jno1qtFnwl2u12q9WCFymKgq+EKIper7dnowzD6HQ6nU6nVqvVajV7hwNZlhVFcbvdPXWzLMs0TdioTqfT/Zb9xYONstc8ga9EpVIpl8t23QDP81C3niKg0WhUq9VGo6Hrur0faJq2fxewzwnkOM45qFdXV2tra1tbW5C88D3mOA4mGU8mk4lEwu/3dxdpNpuHh4cHBwcnJyeFQqFWqxEEQZKkLMuSJKXT6ampqVwu113EMAz4ge3s7GxtbRUKBfstkiTj8fiDBw/u37/f8wMzTdM0zePj46WlpY2Nje63vF5vPp/P5/N+vx/SDV63LMswjIuLi6WlpZWVle4iLMtOT0/PzMxEIpH+M1Cj0dja2lpbWyuXy/V63T4DJRIJez/E4/GejTo9PT08PDw+Pi4UCpeXl/C6x+ORZTkajU5NTU1NTfVEYb1eL5VKR0dH29vbz58/794PgiA8ePDgwYMHPp+vuwhsVKlUWlpaWl5etk8kADYqHo9DVNlFTNOs1WpPnjxZWlrqOTvmcrl8Pp/JZOCE173bLcva399fX18/OTmp1+uNRgNeDwQC8JVIJBKJRILjuO4/eHV1dXBwcHR0VCgUCoUCnF14npdl2efzTU9PT05O9py/W61WqVQ6Pz/f2tra3t62k5ckSZIkFxYWHj58mE6n+/dDp9NZW1tbXl4uFovd76bT6Xw+PzIyIoqiJEmwUVDENM1vv/12eXn56Oiou0g0GoW6wX7oOQOdnZ2tra3t7OzATwM2yuPxdO8HSZII5DiOyvevv/76X//61+XlZbFYhDaRx+NZXFx86623dF2XJKk/3w8ODlZWVtbX1zc2Ni4uLgiCoCgqFovFYrG3335bUZSX5vuLFy9WVlY+/vjj9fV1eJ0kSYqi8vm8z+e7f/9+T91M09R1/fj4+OOPP/7ggw+63woGg3/84x9lWaZpmud5O9+hyNnZ2X/+85+//OUv3UVcLtf777/v8Xg4juM4riffm83m5ubmP//5zxcvXlxeXsJJiyCI+fn5xcXFhYUFt9vdk++6rhcKhdXV1WfPnm1sbOzt7dl1i8ViU1NTbrd7bGysJzVqtdrZ2dnGxsZHH3306aef2vuBJElFUTiOm5mZ6cl30zQNw7i6uvryyy///Oc/N5vN7nfff/99nufhMqs73w3DqNfrT548+etf/3p2dtZd5N1336UoShRFuAzqfgvy/d///vf6+vrl5WWpVILXs9ns4uLi4uIiTdPhcLgn3y8vL7e2tp48ebKxsbGxsQGNcVEUY7FYMpkkSTKVSvXke7PZLBaLz58//+STTz766KNqtQqvUxRFUVStVhsZGXlpvrdarbW1tb/97W+7u7vd7967d880TUmSaJq2L5vgPKdp2vb29j/+8Y+vv/66u8jU1FSr1QoEAnBy7TlSp6enjx8//vzzz4vF4uXlJTR9AoEA/DRM01QUBfPdkZyT77Is5/N5y7KglwYu5F0uVyaTyWQysApaTxGXyxWPxyGGMpkM/DIpioI+lpGRkVAo1FME0iQSiczMzJAkOT4+Dq9DvieTyWw22183iqJomo5Gow8fPuzpG5EkaX5+PhqN9jS7SJKkaToQCNy9e7enF4jjuPn5+WQyKUlSTzzBRuVyuV//+telUgl6J+D1dDqdyWTS6XT/srGQdJOTk4IgJJPJ8/Nzu24+ny8ejycSif4FQgVBCAaDY2NjnU4nGAza1SZJ0uPxTE9P95x47P0gy/LCwkK9Xu/pl1hYWMhkMrIs8zzfvR8oihIEYXp6+k9/+lO5XO4uMjk5mcvlfD5ffwcISZLJZPLBgwfxeBx6TuD1cDgMX4lgMNjfKeHz+UZGRuBgTUxMQL673W6fz+f3+3O5XP9G8TyvKEo6nb5//77H44ELBfJ79+7dCwQCRB+apjmOm5iY+MMf/mDvcJDL5cbHx/1+v9vttq9IYD8wDJPNZn/7299mMpnuIolEAi4BPR5P/5EKBoPz8/Nut1tVVfvSVhRF2A+xWKx/7yFncE6+K4oyOzsbj8c1Tet0OvDLZBgGLnK7L/ltLpcrmUyKopjL5Wq1GsQNSZI8z8Mlef8vE9qJ0CudTCbt7gL4MXu93lgs1r9INEVRJEnGYrF33nlnYmKi+y2O40KhUDAYdLlc3fkORYLB4P3793sWsaNpOhgMhkIhQRD68x3a2j6fD3rS7Q5r2AmSJPXvB8h3nudTqVStVrO7MjiOg873QCDQH4WCIMA1RygUmpubs/cDQRAsy8bj8f4ohJOWz+d76623YrGY3RcMYD/AUERPEUEQZmZmAoFAz6lOUZRQKCTLMsdx/bs9lUq5XK7Z2dlOp2P3BUGXPeyN/o1SFGV0dDQSiUxPT9tdGQzDwKVVIBDo3yiXy+X3+6EHfHx8HHY4VIYkyUgk0v8tgrDmeX5yclKWZXuHA1mWQ6GQz+fjOM7uE4MiJEnCOca+SgBerzcYDAYCAY7j+vM9FAotLi5ms1n4acBGcRwHO0EURcx3p3JOvrtcrkgk4vf7TdOEkSiCIEiSZLr0FGEYRpIkQRBg3MkeGYOFnmFIracIpD/LsvBr7x7ugyTqaZ7bbxEEAc3tnlW5KYqCbha4nO8p4vF4kslkz2UESZJQ5KULUjMMEwgERFGETn97DPNH9gO0uHme9/v93UORUCVoafanJwwIw4kwmUx2/zWSJHtOV90bBR1EgUCgZ3wVNqp7kNkuwnFcJBLx+Xw9o5csy3Icx7Jsf/VgHMXtduu6Dp0b8DpN0/Z+6N97MNIoy7JhGPbBhSNLURR8XE8RGKiE5dej0ai9UXbN+78Sdus+FApJktRznoNPgep1bxdFUZZlBQIBj8fTM87MMAzsh54iANbvDofD8JWw/5q9H/pPCcgZnJPv8POjadoOd/t18NIIoGka/u0uBb89iLb+Ivafomm6J25eWqS7INzx0l8HqEZPDaHIS1tkUKQ/nojvT2kkSV5vP3SfEuwYgndfukXwWT1R/kNF7L/Z3TL9yY2yrwkg4Lrfgh3ev+vsPwhBSXx/H45d7R/aFbBF8EHdBxf+8w/tPXgdtrq/Di89TADOTC/dqB85Ui6Xq/+LZ29Rfyl7P/R8yX+kCHIGR+X7j/yQXsrO1lctBb+NVypFfJ9fr1QE8v2VitiXLK/6QdfYe3bEX+Oz+lv3P/5ZLMu+UhHiujv8evsBPu5VC17jSN3MwUXOgEcdIYScCfMdIYScCfMdIYScCfMdIYScCfMdIYScCfMdIYScCfMdIYScCfMdIYScCfMdIYScCfMdIYScCfMdIYScCfMdIYScCfMdIYScCfMdIYScCfMdIYScCfMdIYScCfMdIYScyTnrN73OYH3nUqlUKBQuLi5arVa73YY1idxudzQajUajHo8HlvEcdmVvzsHBwc7OjqZpmUwmnU7DQqC3bq24drtdr9er1erZ2dn5+Xmr1YL1VF0ul9vtDofD8XhcluVrrLtPMzu4AAAOqUlEQVSE0M+EX7iBsyxL07R6vX54eLiysrK2tlapVCqVCkVRbrcb1rZfXFyMRqOwTuaw63tzdnd3P/zww0aj8bvf/S4SifA8/9IlTF9zzWazWCweHR2trq6urq6Wy2U4eSuKoijKwsLCvXv3eJ6HlbuHXVn0ZsEv3MBZlgUt952dnf39/ePj406n0+l0CIKAtt7e3h7HcZ1Oh+d5j8dDfL+itONdXl5ub2+rqprP53VdhwWgh12pVwDLVVcqlb29va2trb29vfPz80ajYRgGSZK6rquq6vP5AoEAy7LhcNjlcg27yujNgvk+cKZpHh0draysFAoF0zRzuVw4HA6FQvD7V1W1Vqt99tlnjUZDUZRgMAhL2g+71uinGYZhGMbZ2dmTJ0+ePXumKMrdu3dFUfR6vZZlnZ2dnZ2dNZvNb775plarzc/Ph0IhPLLoJmG+D5xhGMfHx0tLS/V6PZVKjYyMQIdMs9k8PDzc3t7+9NNPP//8c5ZlZ2ZmTNPECLgVLMsyDEPTtLOzs9XV1ZWVld///vd3794dGRmJx+OWZS0tLS0vLxeLxc3NzWKxGA6H5+bmhl1r9GbBfB8g0zQNw2i1WtVqtVgschwXi8VmZ2fj8TjHcSRJRiKRRqMRDAY9Ho9pmpVK5eLiQhRFURQx5V9zlmWpqloqlarVKsuywWAwGo0mEolgMOh2u03TTCaTnU5ndXX1+PhY1/VKpaLrOgwg48FFNwPzfYBgZNXO93A4HI1GZ2dnBUHgeZ7jOJZldV23871cLl9cXFAU5fV6MQJec6Zpqqp6enpq53skEonH44FAgGEYyHdRFE9OTmq12tXVFeT7bRxARrcX5vsAGYbRbrdrtVqr1YK2myRJ0MNOURRBEAzDSJIEDXaKour1erlclmV52BVHP82yrGazeXV11Wg0WJZVFEWWZVEUYRDVNE1JktxutyiK8D+BZVk8z2PEo5uB+T5AhmE0m01VVQ3DcLvdgiBwHNczfEpRlMvlkmWZZdlWq6Wqarvdvl23kbyZLMtqt9twvDiOYxgG7u+Ed6GdTpIkx3Ecx9E0DcPpBEHAbf5DrTt6U2C+D5Cd76ZpwtMucAe0pmlwqQ4X8hzHiaLIsiw09uHWSfSas/O90+lAVxvLsqZpdjodwzAsy2JZlmEYyHeGYTRNq9VqHMcJgjDsuqM3Beb7AFmWZZqmruuWZUGHDDzFurGx8c0334iiODIyIghCrVaDdh/cj2Ga5rArjv4nMH4OtzxZllUul/f29iqVysHBgaZpc3Nzs7OzcOjhP2iaBtE/7IqjNwXm+wDBLXTd+d7pdMrl8uPHj//+97/HYrHf/OY3uVwO8p0kSfjPpmliBNwKcPK2871UKu3v729ubn7xxRfwlNPY2BgceoqiTNPEfEc3DPN9sEiShGQ3TROCG0K/3W7DhTy0AeFnb/9ndCt0H1ySJO1DCc8nwyw0cA0H12T45Bq6YZjvAwSDbNDnrus6PLbO83wkEpmYmAiFQqFQyOPx0DQNLTuKohiGwRS4LezjBWdulmUlSYpGo6Ojo61WKxgM0jQN3TK6rhMEwbLsbZxADd1emO8DBL9/eJTJHlPleT4Wi+XzeVmWYdpIiqLa7bbb7Yb5xXAWqtsCjhfcG2OaJsMwsizH4/F6vd7pdEKhEEQ/nNopioKDi5do6MZglAwQTdNut1uSJJqm2+02zCbGsmwqlWIYBiaPhd75arUqCILb7ZZlmef5YVcc/TSSJF0ulyRJxWKx0+k0m02aphVFgQcaNE2LRCKaprXbbTjEPM9LkuRyuTDf0Y3BfB8gmqYFQZAkiWEYyHdd1zmOu3PnTjKZpGmaZdmLiwuYgzAQCEBeuFwuvIR//cGlmCiKMPenqqoURSmKIopiKpWCNnun02m325qmEQTBcZwkSdDeH3bd0ZsCmxIDBJfkgiB4vV5ZlimKurq62tvbq9VqLpeLpmlVVS8uLqrVaqvVomlaluVAIOB2uzHfX38wjUQ4HJYkSdf1crlcKpVKpVKr1WJZluO4crn83XfflUolmOVfkiTsf0c3DNvvAwT97zzPy7IcDodN0zw9PV1bWxsfH/d4PO12u1Ao7O3tXV5ewjMyMD+w2+0edsXRTyNJ0uv1RqNRWZZh7qDz8/Pj42OKogKBAEwKvb6+XiwWJUny+XywhBMOnqObhPk+QHD/DMdxgUAgk8mUSqVyuby1tQUr8zUajePj44ODg0aj4fP5/H4/9N5iBNwKJEnChBN+vx8eP65UKjs7O+12u1qtmqa5s7Ozvb1tGEYkEkkkEn6/H48sumGY7wNHUVQymbx///7BwcHp6en+/v7l5eXTp09h6mBd1yVJevfdd2dnZ3Fxj1sEbn5nGCYcDi8uLnIcZ5rm06dPNzY2YIS8Wq2qqppIJDKZTDabjcViw64yeuNgvg8cTdPJZNLr9QqCUCwWDw4OoKOWYRiPxxONRh89evSrX/0qnU4HAgG8ueIWoWmaoqhIJLK4uCiK4uPHj7/66qtSqdRsNimKCgaDoVBoYmJienp6cnLS4/HgmRvdMMz3mwBDpul0WlVVj8dTrVar1SrcPRkIBKanpyHccX3OWwd6aSKRCEEQuq4LglCtVrvX156cnIzH49CBM+zKojcO5vvAwSSxNE2nUilRFPP5fKfT0TQN5o/ked7n8/l8Pp7nMQJuI57nA4GAIAh+vx8OLsxGwHEcDK37fD6YF3rYNUVvHMz3m0DTNE3Tfr/f7/cPuy7oFwYzA3s8nmAwOOy6IPT/YJsCIYScCfMdIYScCfMdIYScCfMdIYScCcdX0dAoijI6OtpoNMLhMKw6jXeII/QLwnxHQzMyMvLee+9pmpbNZmHCNbyJEKFfEOY7GppsNpvNZoddC4QcC5tLCCHkTJjvCCHkTNg/c9MMw7i6uiqVSqZp0jQNy7bBtMDDrtpNKxaLZ2dnhmGEQiGYO/NWT59pWZZpmqVS6eLiotlsyrIsy7LL5XK5XLimLhoK/NrdtE6ns7Ozs7q6qmmaIAiKooyNjY2Pj3McN+yq3bSdnZ3PPvus1Wo9fPjwwYMHsOzRLc13y7IMwzAMY29v74svvigUClNTU1NTU+FwOBQKYb6jocCv3U2wLAsad4ZhqKr6/Pnzzz//vN1uK4qSTCYlSRoZGXkD8/3o6Oizzz5TVTUQCCwsLMCEa7fuOgYOLszm32q1nj9//sknn+zs7DQaDa/Xy7KsJEkej2fY1URvIsz3m6BpWqfTKZVKp6enh4eHz549Ozw8ZFlWEIRhVw1dn2VZBEG02+1ms1mtVg8ODg4PD7/++uvT01Nd12EWSYSGCPN94CzL6nQ6jUbj5ORkbW1tfX19e3v78PAQVlsddu3QzwIHt1KpFAqFJ0+eLC8vwypdLMuapgknAISGBfN9gKBDptPpHB4eHh4eHh8fv3jxotlssiwbCAQkSYKF3NBtZJpmvV6v1+vn5+cvXrw4Pj4uFouwZovH42EYhmXZWzqWgBwD832AoE9WVdXNzc3//ve/1WpVEARZlmmalmUZ+2duNdM0y+XyycnJ7u7u9vZ2oVCQJGl0dNTr9VIUBYPnmO9ouDDfB8iyLF3X2+12sVjc39/XdX1kZCQSiciy3G63NU0zDGPYdUTXZFlWs9msVCoXFxenp6cXFxfhcHhsbEwQBFVVq9Xq7b0XCDkG5vsA0TTtcrlkWZ6fn3e73aZpwkJux8fHx8fHhmHgENztRVGUoigEQQiCkEgkarVaNBqNRCKGYXz33XfVanXYFUQI832QKIrieZ7juLm5ucnJScuyGIZpt9uWZcEjMMOuILo+mqYVRZEkKZlM6rpuGAbLsgzDXF5eYrcbek1gvg8QSZJwhS4Igv2bp2naXm0Zr99vNYZh+h9cYln21t3Cj5wKv4gIIeRMmO8IIeRMmO8IIeRMmO8IIeRMmO8IIeRMmO8IIeRMmO8IIeRMmO8IIeRMmO8IIeRM+PzqAMH8wJqmPX/+/Pnz56qqEgTR6XT29vb29vbq9bphGC6XS1XV3d1dv98vy7Lf749Go9FoFJ+BfM2Zpqmqaq1WOz8/Pzk5KRaL8Pr29vbGxsbZ2RlBEKVSKRQKBQKBcDgMh1WWZZwXGt0YzPcBgvkj6/X66urqhx9+eHJyQhCEaZrValVVVV3XLcuiaXp3d/fLL7+Mx+N37twZHR1dXFwMh8OY7685OI6FQmF9fX15eXlrawtehxklm81mqVTa2dmB9bVjsdji4uLi4mIqleJ5HvMd3QzM94EjSZKmaVg8miAIy7KgqQ6L+8C78B8YhqFpGpP9toD5hSiKYhjGXj5XURSv12uaJhxWiqIoioKDS1GUPSURQjcA832ASJKERTzm5+clSYL+GYIgYK1t+7/Bz97r9YqiqChKJBLBiH/9URQlSRJN0zzPx+Pxy8tLeB3W2rYsy05zkiQFQYhEIpFIRBRFbLyjG4P5PkDQdmMYJp/P5/P5YVcH/ZIg3yVJisVic3Nzw64OQi+B7USEEHImzHeEEHImzHeEEHImzHeEEHKm13R8tdPpqKp6dXU17IqgAarVap1OR9f1RqNRKpXgVnGapoddL4QGpVKpNJtNuDf6Brym+b6/v//BBx989913w64IGqCNjY39/f1Op/Ppp59eXV0xDMOyLN4ejhysVCo9ffpU07Sb+bjXNN8PDg4uLy9dLtewK4IGqNFoNBoN0zRLpdJXX30FyY75jhxM13W4bL2Zj3tN873ZbDabzWHXAt2QdrtdKpWGXQuEnIa8sZ4ghBBCNwnvn0EIIWfCfEcIIWfCfEcIIWfCfEcIIWfCfEcIIWfCfEcIIWfCfEcIIWfCfEcIIWfCfEcIIWfCfEcIIWfCfEcIIWfCfEcIIWfCfEcIIWfCfEcIIWfCfEcIIWfCfEcIIWfCfEcIIWfCfEcIIWfCfEcIIWfCfEcIIWfCfEcIIWfCfEcIIWfCfEcIIWfCfEcIIWfCfEcIIWfCfEcIIWfCfEcIIWfCfEcIIWfCfEcIIWf6P32lsXV4fnL+AAAAAElFTkSuQmCC;" parent="1" vertex="1">
                    <mxGeometry x="10" y="260" width="295.62" height="190" as="geometry"/>
                </mxCell>
                <mxCell id="30" value="Switch&lt;br&gt;" style="text;html=1;resizable=0;autosize=1;align=center;verticalAlign=middle;points=[];fillColor=none;strokeColor=none;rounded=0;" parent="1" vertex="1">
                    <mxGeometry x="220" y="210" width="50" height="20" as="geometry"/>
                </mxCell>
                <mxCell id="31" value="&lt;font style=&quot;font-size: 18px&quot;&gt;Output&lt;/font&gt;" style="text;html=1;resizable=0;autosize=1;align=center;verticalAlign=middle;points=[];fillColor=none;strokeColor=none;rounded=0;fontFamily=Helvetica;fontSize=11;fontColor=default;" vertex="1" parent="1">
                    <mxGeometry x="550" y="130" width="70" height="20" as="geometry"/>
                </mxCell>
                <mxCell id="35" style="edgeStyle=none;html=1;exitX=1;exitY=0.5;exitDx=0;exitDy=0;exitPerimeter=0;entryX=0;entryY=0.5;entryDx=0;entryDy=0;entryPerimeter=0;endArrow=none;endFill=0;" edge="1" parent="1" source="33" target="3">
                    <mxGeometry relative="1" as="geometry"/>
                </mxCell>
                <mxCell id="33" value="" style="verticalLabelPosition=bottom;shadow=0;dashed=0;align=center;html=1;verticalAlign=top;shape=mxgraph.electrical.logic_gates.inverter_2" vertex="1" parent="1">
                    <mxGeometry x="320" y="160" width="100" height="60" as="geometry"/>
                </mxCell>
            </root>
        </mxGraphModel>
    </diagram>
</mxfile>